<svg xmlns="http://www.w3.org/2000/svg" width="512" height="512" viewBox="0 0 512 512">
  <defs>
    <linearGradient id="bg" x1="0%" y1="0%" x2="100%" y2="100%">
      <stop offset="0%" style="stop-color:#1976D2"/>
      <stop offset="100%" style="stop-color:#0D47A1"/>
    </linearGradient>
  </defs>
  <rect width="512" height="512" rx="100" fill="url(#bg)"/>
  <!-- Heart with plus -->
  <g transform="translate(256, 220)" fill="white">
    <path d="M0 80 C0 80, -120 -20, -120 -64 C-120 -108, -64 -128, 0 -64 C64 -128, 120 -108, 120 -64 C120 -20, 0 80, 0 80Z" fill="white" opacity="0.95"/>
    <rect x="-10" y="-44" width="20" height="64" rx="4" fill="#1976D2"/>
    <rect x="-32" y="-22" width="64" height="20" rx="4" fill="#1976D2"/>
  </g>
  <!-- Hands -->
  <g transform="translate(256, 340)" fill="white" opacity="0.8">
    <path d="M-80 0 C-80 0, -50 56, 0 56 C50 56, 80 0, 80 0 L68 20 C68 20, 40 64, 0 64 C-40 64, -68 20, -68 20Z"/>
  </g>
  <!-- Text -->
  <text x="256" y="448" text-anchor="middle" font-family="Arial, sans-serif" font-size="44" font-weight="bold" fill="white" opacity="0.9">AID CONNECT</text>
</svg>
